HIERARCHY
ROOT tetra_large
{
	OFFSET 0.000000 0.000000 0.000000
	CHANNELS 6 Xposition Yposition Zposition Yrotation Xrotation Zrotation
	End Site
	{
		OFFSET 0.000000 0.000000 0.000000
	}
}
MOTION
Frames: 150
Frame Time: 0.008333334
-3.880589 0.209712 3.887982 -75.067020 -0.103363 -0.785767 
-3.880386 0.209467 3.888215 -75.116030 -0.230469 -0.793121 
-3.880436 0.209468 3.888283 -75.175230 -0.208435 -0.803894 
-3.880098 0.209935 3.887983 -75.164370 -0.190125 -0.827972 
-3.880639 0.209360 3.888658 -75.158910 -0.150299 -0.831909 
-3.880963 0.209091 3.888973 -75.110810 -0.161194 -0.835541 
-3.881246 0.208954 3.889050 -75.119690 -0.175842 -0.850037 
-3.881504 0.209079 3.889361 -75.096860 -0.102844 -0.887421 
-3.881758 0.209025 3.889220 -75.108340 -0.099304 -0.874908 
-3.881928 0.209164 3.888987 -75.096650 -0.084290 -0.854675 
-3.882009 0.208809 3.889080 -75.112240 -0.141266 -0.893066 
-3.881963 0.209048 3.889046 -75.110320 -0.088440 -0.883484 
-3.882232 0.208864 3.889160 -75.152920 -0.145203 -0.888428 
-3.882410 0.208918 3.888862 -75.157840 -0.125397 -0.889313 
-3.882579 0.208983 3.888479 -75.088870 -0.106262 -0.871552 
-3.883026 0.208774 3.888259 -75.018680 -0.096405 -0.867920 
-3.883634 0.208710 3.888375 -75.040250 -0.179169 -0.893646 
-3.884005 0.208793 3.888092 -74.979740 -0.182190 -0.897583 
-3.884054 0.208894 3.887737 -74.971920 -0.139923 -0.874878 
-3.884068 0.209063 3.887635 -74.981510 -0.125488 -0.948914 
-3.884288 0.209214 3.887628 -74.980100 -0.088318 -0.917175 
-3.885261 0.208763 3.887597 -74.977110 -0.206238 -0.889832 
-3.884742 0.208893 3.887364 -74.963810 -0.108734 -0.905243 
-3.884358 0.209127 3.887152 -74.948970 -0.124725 -0.815857 
-3.884032 0.208900 3.887032 -74.995910 -0.079376 -0.852753 
-3.883934 0.209013 3.886958 -74.970490 -0.133240 -0.801178 
-3.883595 0.208937 3.886425 -74.955170 -0.125977 -0.803955 
-3.883465 0.209209 3.886966 -74.962650 -0.121521 -0.815125 
-3.883626 0.208869 3.887198 -75.023130 -0.164551 -0.856110 
-3.883214 0.209230 3.886756 -75.052980 -0.131561 -0.827881 
-3.883235 0.209161 3.887305 -75.036560 -0.167206 -0.835053 
-3.882711 0.209305 3.887543 -75.025450 -0.088409 -0.840637 
-3.882472 0.209436 3.887721 -75.078980 -0.078339 -0.832214 
-3.882139 0.209387 3.887464 -75.116270 -0.047272 -0.896729 
-3.882352 0.209152 3.887886 -75.113860 -0.165466 -0.860382 
-3.881986 0.209175 3.888491 -75.132970 -0.139191 -0.836304 
-3.881846 0.209112 3.888095 -75.160220 -0.132477 -0.891541 
-3.881521 0.209082 3.888389 -75.167050 -0.147400 -0.833313 
-3.881428 0.209030 3.888489 -75.144440 -0.144928 -0.840729 
-3.881282 0.209282 3.888393 -75.107060 -0.133911 -0.852142 
-3.881238 0.209060 3.888674 -75.124300 -0.168915 -0.863220 
-3.881186 0.209113 3.888694 -75.139010 -0.159424 -0.851349 
-3.880983 0.209193 3.888706 -75.121640 -0.154999 -0.914124 
-3.881087 0.209300 3.888659 -75.131100 -0.144989 -0.911469 
-3.881010 0.209044 3.889155 -75.142910 -0.153168 -0.844116 
-3.880810 0.209293 3.889002 -75.133030 -0.130005 -0.836334 
-3.881276 0.208926 3.889009 -75.152920 -0.164551 -0.879761 
-3.881203 0.208881 3.889067 -75.135560 -0.156555 -0.876587 
-3.881170 0.209071 3.888931 -75.130370 -0.169067 -0.864014 
-3.881089 0.209220 3.889025 -75.086400 -0.121429 -0.832794 
-3.881152 0.209059 3.888968 -75.130370 -0.170593 -0.864807 
-3.880770 0.209196 3.889155 -75.092410 -0.141113 -0.845429 
-3.880841 0.209332 3.889082 -75.117250 -0.092926 -0.909241 
-3.880720 0.209187 3.889325 -75.098210 -0.140167 -0.847809 
-3.880800 0.209022 3.889439 -75.121950 -0.173584 -0.872925 
-3.880829 0.209147 3.889243 -75.135010 -0.149750 -0.906097 
-3.880262 0.209228 3.889889 -75.098660 -0.116730 -0.842499 
-3.880412 0.209272 3.889982 -75.096310 -0.116913 -0.866028 
-3.880451 0.208824 3.890056 -75.100370 -0.158020 -0.889893 
-3.880327 0.208909 3.890167 -75.125980 -0.193512 -0.913055 
-3.880419 0.209091 3.890137 -75.054570 -0.100433 -0.932709 
-3.881006 0.208554 3.890249 -75.085910 -0.160095 -0.962677 
-3.881465 0.208786 3.890690 -75.047060 -0.124451 -0.940338 
-3.881949 0.208332 3.891158 -75.045530 -0.151886 -0.938599 
-3.881765 0.208290 3.891312 -75.048860 -0.089722 -0.912659 
-3.881809 0.208137 3.891545 -74.991300 -0.089935 -0.913849 
-3.882083 0.207839 3.892056 -75.042540 -0.226044 -0.913940 
-3.881533 0.207944 3.891914 -75.065370 -0.168243 -0.928772 
-3.881254 0.207768 3.892118 -75.012050 -0.124512 -0.972168 
-3.881287 0.207652 3.892402 -75.003600 -0.162231 -0.963593 
-3.880779 0.208176 3.892421 -75.026520 -0.109955 -0.926971 
-3.880510 0.207356 3.892810 -74.986790 -0.120667 -0.980469 
-3.880481 0.207640 3.892736 -75.018310 -0.165405 -0.986206 
-3.880255 0.207107 3.893591 -75.016140 -0.173706 -0.946991 
-3.880713 0.205874 3.894979 -75.066410 -0.199921 -0.944244 
-3.880742 0.205888 3.896489 -75.192500 -0.293762 -0.939056 
-3.880405 0.203950 3.897174 -75.027100 -0.199890 -0.999146 
-3.880643 0.204453 3.898771 -75.149290 -0.255829 -1.031525 
-3.880533 0.203292 3.900051 -75.132390 -0.220978 -1.120636 
-3.880191 0.203186 3.901045 -75.003080 -0.279511 -1.048309 
-3.880054 0.202194 3.901620 -75.120450 -0.210602 -1.097992 
-3.879901 0.202816 3.902364 -75.052090 -0.307373 -0.969452 
-3.879447 0.202725 3.901639 -75.114870 -0.262512 -1.112885 
-3.878498 0.203493 3.901462 -75.021390 -0.221619 -1.068878 
-3.878073 0.202720 3.901082 -75.156620 -0.260712 -1.130890 
-3.877771 0.203347 3.901788 -75.099670 -0.299225 -1.022522 
-3.877265 0.202711 3.901811 -75.154330 -0.323303 -1.089691 
-3.876812 0.203213 3.902226 -75.109920 -0.335877 -1.076416 
-3.876742 0.202857 3.902394 -75.185970 -0.318512 -1.120972 
-3.876246 0.203338 3.902617 -75.097380 -0.302277 -1.060150 
-3.876481 0.202700 3.902598 -75.039490 -0.320038 -1.084259 
-3.876853 0.203187 3.902948 -75.105040 -0.388306 -1.049225 
-3.876819 0.202664 3.902187 -75.069340 -0.286163 -1.092499 
-3.877389 0.202904 3.901667 -75.126430 -0.277374 -1.061157 
-3.877849 0.201976 3.900935 -75.104160 -0.252869 -1.181213 
-3.878089 0.202733 3.901016 -75.085570 -0.209015 -1.084839 
-3.878932 0.201650 3.901909 -75.026490 -0.219452 -1.167603 
-3.878969 0.201909 3.901770 -75.179020 -0.264343 -1.073151 
-3.879337 0.200876 3.902718 -75.118900 -0.304077 -1.102875 
-3.879310 0.201079 3.902486 -75.124210 -0.286987 -1.131714 
-3.879850 0.200895 3.903960 -75.176910 -0.257355 -1.122284 
-3.879982 0.200522 3.903966 -75.094510 -0.273895 -1.080719 
-3.881121 0.200031 3.906223 -75.287480 -0.185059 -1.138153 
-3.882074 0.199205 3.906952 -75.244930 -0.137116 -1.149170 
-3.882654 0.197999 3.907804 -75.243190 -0.039825 -1.298706 
-3.884016 0.197323 3.908443 -75.183650 0.002334 -1.272430 
-3.884869 0.196341 3.909369 -75.202180 0.007071 -1.289032 
-3.886052 0.196029 3.910020 -75.025670 -0.115479 -1.151520 
-3.886655 0.195163 3.911158 -75.137450 -0.117371 -1.165802 
-3.887023 0.195195 3.912083 -75.123990 -0.086975 -1.192902 
-3.886658 0.194748 3.912556 -75.120850 -0.081299 -1.269073 
-3.886055 0.194930 3.913388 -75.089480 -0.047516 -1.284698 
-3.885605 0.194912 3.913738 -75.127500 -0.068817 -1.324860 
-3.884756 0.195454 3.913163 -75.163640 -0.043884 -1.332153 
-3.884220 0.195389 3.913171 -75.174560 -0.039490 -1.345581 
-3.883260 0.196200 3.912657 -75.120450 -0.006500 -1.314331 
-3.882769 0.196034 3.911843 -75.152560 -0.049194 -1.426392 
-3.882038 0.196315 3.912405 -75.194000 -0.049255 -1.383850 
-3.882046 0.196118 3.912386 -75.208130 -0.040436 -1.426117 
-3.882195 0.196252 3.912535 -75.168610 -0.083862 -1.398560 
-3.882159 0.196144 3.912559 -75.204350 -0.043427 -1.424866 
-3.882576 0.195990 3.912947 -75.121830 -0.074036 -1.326385 
-3.882920 0.195914 3.912859 -75.182680 -0.000952 -1.377502 
-3.882893 0.195852 3.913417 -75.163640 -0.013031 -1.344910 
-3.882669 0.196167 3.913159 -75.171480 -0.074554 -1.303345 
-3.882803 0.196361 3.912912 -75.147950 -0.087677 -1.337891 
-3.882681 0.196190 3.912837 -75.247190 -0.056122 -1.386993 
-3.882642 0.196279 3.912469 -75.099370 -0.035339 -1.365845 
-3.882394 0.196025 3.912709 -75.151980 -0.069550 -1.424011 
-3.882464 0.196163 3.912625 -75.123690 -0.055969 -1.350677 
-3.881950 0.196061 3.912479 -75.192380 -0.036896 -1.442291 
-3.882197 0.196353 3.912562 -75.207520 -0.001911 -1.381836 
-3.882033 0.196129 3.912539 -75.157960 -0.079620 -1.380859 
-3.882190 0.196074 3.912618 -75.166260 -0.111267 -1.368042 
-3.881929 0.196327 3.912092 -75.109990 -0.080750 -1.366516 
-3.882681 0.196223 3.912132 -75.161160 -0.059814 -1.393463 
-3.882049 0.196532 3.912295 -75.187990 -0.052734 -1.372833 
-3.881913 0.196528 3.911862 -75.213040 -0.071045 -1.382263 
-3.881922 0.196623 3.911662 -75.148860 -0.024628 -1.365082 
-3.881876 0.196664 3.911995 -75.164950 -0.073059 -1.397705 
-3.881438 0.196914 3.911358 -75.159550 -0.045319 -1.401062 
-3.881126 0.196904 3.911473 -75.198300 -0.081970 -1.378754 
-3.881233 0.196914 3.911423 -75.149660 -0.112457 -1.352936 
-3.880914 0.196889 3.911234 -75.144260 -0.088989 -1.356018 
-3.881452 0.196674 3.912049 -75.165370 -0.121643 -1.363281 
-3.881431 0.196698 3.911931 -75.190280 -0.098694 -1.383850 
-3.881205 0.196796 3.911752 -75.143590 -0.121063 -1.345886 
-3.881238 0.196993 3.911936 -75.158940 -0.110748 -1.339569 
-3.880770 0.196832 3.911610 -75.169310 -0.069244 -1.380524 
-3.880861 0.196785 3.911791 -75.115690 -0.136108 -1.359406 
